#!OML:ASF H:\Terrain\Patient Classification 1\Animal1\Tuesday\Animal1.ASF
:FULLY-SPECIFIED
:DEGREES
2449
root 13.6401 14.3199 -14.0677 29.5864 -24.5983 9.0268
lowerback 18.9256 -1.08847 1.43156
upperback -0.527095 -0.8216 2.70552
thorax -11.2312 -0.376156 2.40293
lowerneck -6.5283 14.2257 2.30331
upperneck -23.8611 17.555 -12.6346
head -4.80728 9.21928 -4.50488
rclavicle -4.37326e-014 1.90833e-014
rhumerus -7.48834 8.32259 13.9583
rradius 25.9172
rwrist -37.3181
rhand -8.90608 8.40757
rfingers 7.12502
rthumb 17.0368 -20.8654
lclavicle -4.37326e-014 1.90833e-014
lhumerus -26.1156 9.64497 1.07661
lradius 23.1621
lwrist -18.9199
lhand 9.53102 59.0429
lfingers 7.12502
lthumb 34.6814 85.6728
rfemur -81.5606 1.36129 14.2537
rtibia 70.8418
rfoot -17.7095 -17.7624
rtoes -7.89055
lfemur -73.0274 -14.8817 -20.7537
ltibia 65.8164
lfoot -24.0382 12.8659
ltoes -6.35185
2450
root 13.6465 14.3262 -14.0587 29.615 -24.489 9.06063
lowerback 18.8107 -1.17216 1.6835
upperback -0.4869 -0.870867 2.80151
thorax -11.1219 -0.411463 2.37442
lowerneck -6.51194 14.2121 2.35784
upperneck -23.8855 17.5208 -12.7217
head -4.80472 9.20351 -4.53997
rclavicle -8.90555e-014 -2.54444e-014
rhumerus -7.39188 8.35589 13.9226
rradius 25.9095
rwrist -37.5703
rhand -9.23297 8.67233
rfingers 7.12502
rthumb 16.7222 -20.6275
lclavicle -8.90555e-014 -2.54444e-014
lhumerus -26.1084 8.97689 1.26372
lradius 23.1964
lwrist -18.2927
lhand 9.40106 59.0108
lfingers 7.12502
lthumb 34.558 85.669
rfemur -81.5013 1.19722 14.2711
rtibia 70.7429
rfoot -17.5217 -17.7357
rtoes -8.14211
lfemur -72.9962 -15.0019 -20.7538
ltibia 65.6739
lfoot -23.9972 12.7352
ltoes -5.59654
2451
root 13.6523 14.3365 -14.0504 29.5384 -24.596 9.1605
lowerback 18.7915 -1.14978 1.75655
upperback -0.447896 -0.824273 2.83088
thorax -11.069 -0.393363 2.35037
lowerneck -6.55599 14.1641 2.51049
upperneck -23.7486 17.442 -12.8154
head -4.73449 9.15569 -4.57454
rclavicle -2.38542e-014 2.38542e-014
rhumerus -7.41247 8.48301 13.9238
rradius 25.9438
rwrist -37.7101
rhand -9.63134 8.29501
rfingers 7.12502
rthumb 16.3386 -21.0367
lclavicle -2.38542e-014 2.38542e-014
lhumerus -25.9626 8.46415 1.4453
lradius 23.1746
lwrist -17.9355
lhand 9.11378 59.0957
lfingers 7.12502
lthumb 34.2853 85.8157
rfemur -81.4045 1.17281 14.138
rtibia 70.6488
rfoot -17.5441 -17.7981
rtoes -8.57482
lfemur -72.8024 -14.9979 -20.9512
ltibia 65.5372
lfoot -24.1319 12.6926
ltoes -5.14785
2452
root 13.6561 14.3494 -14.0436 29.4276 -24.8104 9.25404
lowerback 18.7827 -1.0907 1.75519
upperback -0.365627 -0.74784 2.85349
thorax -10.9731 -0.357643 2.35188
lowerneck -6.7693 14.1233 2.39719
upperneck -23.5516 17.4217 -12.6202
head -4.67315 9.13383 -4.47494
rclavicle -5.88403e-014 4.77083e-014
rhumerus -7.47174 8.55146 13.9795
rradius 26.032
rwrist -37.873
rhand -9.57348 8.023
rfingers 7.12502
rthumb 16.3943 -21.3042
lclavicle -5.88403e-014 4.77083e-014
lhumerus -25.8501 8.24753 1.61915
lradius 23.1829
lwrist -17.8331
lhand 8.89154 59.1995
lfingers 7.12502
lthumb 34.0743 85.9667
rfemur -81.2845 1.22691 13.9771
rtibia 70.5556
rfoot -17.5294 -17.8227
rtoes -9.11282
lfemur -72.5459 -14.9507 -21.1636
ltibia 65.3921
lfoot -24.2777 12.8693
ltoes -5.39167
2453
root 13.6601 14.3572 -14.0382 29.4519 -24.9656 9.27555
lowerback 18.7389 -1.06833 1.82173
upperback -0.319567 -0.702761 2.89624
thorax -10.8981 -0.339516 2.34589
lowerneck -6.95297 14.1046 2.4367
upperneck -23.4312 17.4104 -12.5238
head -4.61443 9.11195 -4.43032
rclavicle 6.36111e-014 -3.18055e-014
rhumerus -7.54388 9.22606 13.9896
rradius 26.1836
rwrist -38.7133
rhand -9.64469 8.11964
rfingers 7.12502
rthumb 16.3258 -21.2132
lclavicle 6.36111e-014 -3.18055e-014
lhumerus -25.8286 8.70521 1.59051
lradius 23.1478
lwrist -18.3736
lhand 8.81274 59.1397
lfingers 7.12502
lthumb 33.9994 85.9236
rfemur -81.2693 1.26921 13.9005
rtibia 70.4458
rfoot -17.2165 -17.8752
rtoes -10.1428
lfemur -72.4911 -14.9272 -21.2055
ltibia 65.245
lfoot -24.2364 13.0696
ltoes -6.24757
2454
root 13.6661 14.3623 -14.0334 29.5149 -25.0908 9.3964
lowerback 18.8057 -1.0824 1.81691
upperback -0.405369 -0.713511 2.92408
thorax -11.0321 -0.342353 2.38727
lowerneck -7.06419 14.0557 2.72172
upperneck -23.2157 17.3238 -12.6293
head -4.49622 9.0471 -4.47542
rclavicle -4.13472e-014 3.33958e-014
rhumerus -7.46334 9.35576 13.8665
rradius 26.2115
rwrist -39.0461
rhand -9.43776 8.24979
rfingers 7.12502
rthumb 16.525 -21.0665
lclavicle -4.13472e-014 3.33958e-014
lhumerus -25.7276 9.52849 1.34593
lradius 22.7892
lwrist -19.3278
lhand 8.85279 58.9194
lfingers 7.12502
lthumb 34.0375 85.6948
rfemur -81.3675 1.21689 13.7549
rtibia 70.3345
rfoot -17.0177 -17.8596
rtoes -10.9428
lfemur -72.5405 -14.9527 -21.3096
ltibia 65.1186
lfoot -24.0526 13.0537
ltoes -6.11177
2455
root 13.6712 14.3662 -14.0315 29.5913 -25.149 9.40234
lowerback 18.9011 -1.10169 1.93632
upperback -0.521276 -0.694854 3.01089
thorax -11.2186 -0.336199 2.41702
lowerneck -7.03798 14.0133 2.74455
upperneck -22.9836 17.2746 -12.6215
head -4.42914 9.01781 -4.46393
rclavicle -3.33958e-014 -4.77083e-014
rhumerus -7.16301 8.50114 13.8056
rradius 26.0519
rwrist -38.555
rhand -8.82264 8.01862
rfingers 7.12502
rthumb 17.1172 -21.2474
lclavicle -3.33958e-014 -4.77083e-014
lhumerus -25.6225 9.91072 1.23186
lradius 22.5509
lwrist -19.7937
lhand 9.11209 58.9085
lfingers 7.12502
lthumb 34.2837 85.6288
rfemur -81.4264 1.17313 13.7702
rtibia 70.2296
rfoot -17.1256 -17.5425
rtoes -9.95304
lfemur -72.6034 -14.9706 -21.2812
ltibia 65.0495
lfoot -23.9905 12.9897
ltoes -5.53528
2456
root 13.6737 14.3692 -14.0302 29.6963 -25.1623 9.32681
lowerback 18.7927 -1.15672 2.14859
upperback -0.682968 -0.708266 3.10314
thorax -11.3413 -0.350888 2.40435
lowerneck -6.19828 14.0716 2.83365
upperneck -23.1747 17.3616 -12.6686
head -4.59897 9.07786 -4.56553
rclavicle 6.36111e-015 -3.65764e-014
rhumerus -6.84185 8.2624 13.7764
rradius 25.9864
rwrist -38.3186
rhand -8.79719 7.85512
rfingers 7.12502
rthumb 17.1417 -21.4087
lclavicle 6.36111e-015 -3.65764e-014
lhumerus -25.8644 9.50999 1.21447
lradius 22.8888
lwrist -19.6149
lhand 9.25775 59.0892
lfingers 7.12502
lthumb 34.422 85.7783
rfemur -81.4578 1.2275 13.8043
rtibia 70.1463
rfoot -17.3938 -17.1972
rtoes -8.21486
lfemur -72.6755 -14.9682 -21.1611
ltibia 65.0087
lfoot -24.1369 12.922
ltoes -5.34512
2457
root 13.6765 14.3743 -14.024 29.7847 -25.2884 9.40573
lowerback 18.6313 -1.21532 2.16599
upperback -1.1992 -0.76762 3.10455
thorax -11.8331 -0.376261 2.42632
lowerneck -4.04773 14.1001 3.58391
upperneck -23.5763 17.403 -12.9515
head -4.95564 9.10905 -4.94357
rclavicle -2.8625e-014 -3.81667e-014
rhumerus -6.59321 9.1444 13.6721
rradius 26.1223
rwrist -38.3074
rhand -8.78443 7.62374
rfingers 7.12502
rthumb 17.1539 -21.639
lclavicle -2.8625e-014 -3.81667e-014
lhumerus -26.1594 7.77536 1.20537
lradius 23.2329
lwrist -18.7523
lhand 8.93952 59.1204
lfingers 7.12502
lthumb 34.1198 85.8775
rfemur -81.558 1.25239 13.656
rtibia 70.0815
rfoot -17.5574 -17.1505
rtoes -8.21834
lfemur -72.7083 -14.948 -21.2607
ltibia 64.9263
lfoot -24.1395 12.8568
ltoes -4.85931
